<?xml version="1.0" encoding="UTF-8"?>
<svg version="1.1" xmlns="http://www.w3.org/2000/svg" width="500" height="500">
<path d="M0 0 C165 0 330 0 500 0 C500 165 500 330 500 500 C335 500 170 500 0 500 C0 335 0 170 0 0 Z " fill="#FEFEFE" transform="translate(0,0)"/>
<path d="M0 0 C1.46535356 0.02652224 2.93044676 0.07413383 4.39453125 0.140625 C5.14412109 0.15867188 5.89371094 0.17671875 6.66601562 0.1953125 C8.51356835 0.24238391 10.36046284 0.31412734 12.20703125 0.390625 C14.40878342 6.08010848 16.30084061 11.7887954 18.01953125 17.640625 C18.54014491 19.39850257 19.06098523 21.15631303 19.58203125 22.9140625 C19.98035156 24.26129395 19.98035156 24.26129395 20.38671875 25.63574219 C21.21102944 28.40405227 22.05030606 31.1673905 22.89453125 33.9296875 C23.16676514 34.82397461 23.43899902 35.71826172 23.71948242 36.63964844 C24.24040325 38.34945144 24.76387374 40.0584804 25.2902832 41.76660156 C26.56212223 45.96077094 27.61169832 50.03418872 28.20703125 54.390625 C24.57703125 54.390625 20.94703125 54.390625 17.20703125 54.390625 C16.21703125 50.430625 15.22703125 46.470625 14.20703125 42.390625 C9.10297352 42.09189573 4.00408127 41.87537014 -1.10668945 41.73144531 C-2.8406642 41.67142497 -4.57403971 41.58976604 -6.3059082 41.48535156 C-15.78728775 40.54496933 -15.78728775 40.54496933 -24.39456177 43.59509277 C-26.71235748 46.12709591 -28.22880248 48.67976954 -29.85351562 51.71875 C-31.79296875 54.390625 -31.79296875 54.390625 -35.11108398 55.16113281 C-38.09223559 55.1422889 -40.86257318 54.92612876 -43.79296875 54.390625 C-39.58783518 47.89391341 -35.08126253 41.70389516 -30.35546875 35.578125 C-28.94595193 33.7400913 -27.53711587 31.9015354 -26.12890625 30.0625 C-25.41444336 29.12986328 -24.69998047 28.19722656 -23.96386719 27.23632812 C-20.44252363 22.62040589 -16.95984492 17.97572132 -13.48046875 13.328125 C-12.85277588 12.48983154 -12.22508301 11.65153809 -11.57836914 10.7878418 C-10.4707748 9.3079494 -9.36346702 7.82784244 -8.2565918 6.34741211 C-7.53209839 5.37880249 -7.53209839 5.37880249 -6.79296875 4.390625 C-6.31408203 3.65561768 -5.83519531 2.92061035 -5.34179688 2.16333008 C-3.79296875 0.390625 -3.79296875 0.390625 0 0 Z " fill="#060606" transform="translate(126.79296875,192.609375)"/>
<path d="M0 0 C1.48831242 0.00667405 2.97660807 0.01863442 4.46484375 0.03515625 C5.22345703 0.03966797 5.98207031 0.04417969 6.76367188 0.04882812 C8.64326246 0.06064945 10.52281274 0.07858547 12.40234375 0.09765625 C16.82903645 14.4039747 21.24560052 28.71016901 25.40234375 43.09765625 C25.77617187 44.32097656 26.15 45.54429687 26.53515625 46.8046875 C27.40234375 50.09765625 27.40234375 50.09765625 27.40234375 54.09765625 C24.10234375 54.09765625 20.80234375 54.09765625 17.40234375 54.09765625 C14.40234375 45.59765625 14.40234375 45.59765625 14.40234375 41.09765625 C9.15379887 40.94291553 3.91220595 40.86860061 -1.33862305 40.86572266 C-3.12047405 40.8537845 -4.90232309 40.82063473 -6.68334961 40.76513672 C-16.42066718 40.08631902 -16.42066718 40.08631902 -25.22879028 43.3236084 C-27.56143649 45.85281928 -29.08826469 48.40187314 -30.72460938 51.44335938 C-32.59765625 54.09765625 -32.59765625 54.09765625 -35.67944336 54.86621094 C-38.41573848 54.84917773 -40.91799466 54.63859728 -43.59765625 54.09765625 C-42.24679292 51.23085951 -40.71148101 48.73285403 -38.83203125 46.18359375 C-38.27862061 45.43150635 -37.72520996 44.67941895 -37.1550293 43.90454102 C-36.26037964 42.70075806 -36.26037964 42.70075806 -35.34765625 41.47265625 C-34.72866455 40.63597412 -34.10967285 39.79929199 -33.47192383 38.93725586 C-28.58280601 32.35729497 -23.58156031 25.86960791 -18.52758789 19.41577148 C-14.33396437 14.0602109 -10.22541778 8.64966762 -6.171875 3.1875 C-3.84953542 0.10449336 -3.84953542 0.10449336 0 0 Z " fill="#060606" transform="translate(268.59765625,192.90234375)"/>
<path d="M0 0 C1.48125366 0.00424484 1.48125366 0.00424484 2.99243164 0.00857544 C6.12008215 0.0196943 9.24743728 0.04478334 12.375 0.0703125 C14.50650626 0.08035302 16.63801704 0.08947699 18.76953125 0.09765625 C23.9714665 0.11960643 29.17318331 0.15407859 34.375 0.1953125 C34.045 3.1653125 33.715 6.1353125 33.375 9.1953125 C29.98955385 10.04167404 27.98108087 10.27946136 24.60644531 10.12524414 C23.66577209 10.08512711 22.72509888 10.04501007 21.75592041 10.00367737 C20.74849792 9.95476852 19.74107544 9.90585968 18.703125 9.85546875 C17.66557068 9.80966171 16.62801636 9.76385468 15.559021 9.71665955 C12.24740717 9.56919309 8.93623161 9.4136041 5.625 9.2578125 C3.37893037 9.15636561 1.13283678 9.05544774 -1.11328125 8.95507812 C-6.61748019 8.70795919 -12.12134138 8.45417159 -17.625 8.1953125 C-17.67828964 8.83226044 -17.73157928 9.46920837 -17.78648376 10.12545776 C-18.26250658 15.37886185 -18.98247144 20.38365175 -20.25390625 25.515625 C-20.53564697 26.66820801 -20.8173877 27.82079102 -21.10766602 29.00830078 C-21.46401123 30.43126465 -21.82035645 31.85422852 -22.1875 33.3203125 C-23.321875 37.8990625 -24.45625 42.4778125 -25.625 47.1953125 C-9.125 46.8653125 7.375 46.5353125 24.375 46.1953125 C23.715 49.1653125 23.055 52.1353125 22.375 55.1953125 C14.91630984 56.22551832 7.51967918 56.38150981 0.00073242 56.38061523 C-2.0550602 56.38280458 -4.11031717 56.40103074 -6.16601562 56.41992188 C-23.81622241 56.49644896 -23.81622241 56.49644896 -30.625 52.3828125 C-34.54654666 48.09362084 -34.83246267 44.3425448 -34.78344727 38.76098633 C-34.50610853 34.27015004 -33.49572805 29.99523918 -32.4375 25.6328125 C-32.24091797 24.73884766 -32.04433594 23.84488281 -31.84179688 22.92382812 C-29.77523765 14.2315621 -26.16676124 7.22315333 -18.625 2.1953125 C-12.32284846 0.1976001 -6.57825561 -0.07200675 0 0 Z " fill="#0A0A0A" transform="translate(54.625,191.8046875)"/>
<path d="M0 0 C21.78 0 43.56 0 66 0 C65.67 2.64 65.34 5.28 65 8 C55.43 8 45.86 8 36 8 C35.67 10.97 35.34 13.94 35 17 C34.43565469 19.92373261 33.843121 22.81662097 33.1875 25.71875 C33.01371826 26.50270142 32.83993652 27.28665283 32.66088867 28.09436035 C32.29674115 29.73171608 31.93026415 31.36855538 31.56152344 33.00488281 C30.99547952 35.52008667 30.43866891 38.03721477 29.8828125 40.5546875 C29.52658286 42.15116252 29.16983128 43.74752119 28.8125 45.34375 C28.64580811 46.09781128 28.47911621 46.85187256 28.30737305 47.62878418 C27.1153125 52.8846875 27.1153125 52.8846875 26 54 C24.31391034 54.07205511 22.62499341 54.08386068 20.9375 54.0625 C20.01839844 54.05347656 19.09929687 54.04445312 18.15234375 54.03515625 C17.44207031 54.02355469 16.73179687 54.01195312 16 54 C18.34533016 43.32184972 20.74682794 32.65676664 23.1875 22 C23.44934082 20.84838379 23.71118164 19.69676758 23.98095703 18.51025391 C24.2282959 17.43437012 24.47563477 16.35848633 24.73046875 15.25 C24.95114014 14.28578125 25.17181152 13.3215625 25.39916992 12.328125 C26 10 26 10 27 8 C17.76 8 8.52 8 -1 8 C-0.67 5.36 -0.34 2.72 0 0 Z " fill="#030303" transform="translate(168,193)"/>
<path d="M0 0 C3.63 0 7.26 0 11 0 C15.62 8.25 20.24 16.5 25 25 C29.11532183 22.94233909 30.92021411 21.14811835 33.96484375 17.7734375 C34.93898692 16.73011699 35.91496007 15.68850267 36.89257812 14.6484375 C38.41730295 13.01925936 39.92937819 11.38413149 41.41235352 9.71679688 C49.69687588 0.447633 49.69687588 0.447633 55.65283203 -0.70996094 C58.85392279 -0.71082903 61.84484435 -0.52145545 65 0 C58.92245104 7.35703296 52.3156837 14.22686837 45.0625 20.4375 C44.42957031 20.99566406 43.79664063 21.55382812 43.14453125 22.12890625 C41.5232531 23.54346405 39.86863116 24.91992752 38.19921875 26.27734375 C29.45872559 33.97592382 27.8520069 40.85091844 26 52 C25.67 52.66 25.34 53.32 25 54 C21.7 54 18.4 54 15 54 C15.2165625 52.90300781 15.433125 51.80601562 15.65625 50.67578125 C15.93774292 49.22140116 16.21897941 47.76697143 16.5 46.3125 C16.64308594 45.59126953 16.78617187 44.87003906 16.93359375 44.12695312 C18.49709784 35.97439611 17.91207155 32.13411015 13.5 25.0625 C12.58523987 23.55250574 11.67118857 22.04208186 10.7578125 20.53125 C10.06606934 19.39816406 10.06606934 19.39816406 9.36035156 18.2421875 C7.31798718 14.87587837 5.33835827 11.47532649 3.375 8.0625 C2.72273438 6.93972656 2.07046875 5.81695312 1.3984375 4.66015625 C0 2 0 2 0 0 Z " fill="#050505" transform="translate(373,193)"/>
<path d="M0 0 C3.3 0 6.6 0 10 0 C9.39714997 8.66596915 7.54116754 16.89599748 5.5 25.3125 C5.01632946 27.33343109 4.53448217 29.35478907 4.05310059 31.37626648 C3.61845486 33.1972767 3.17947472 35.01725078 2.74023438 36.8371582 C2.10624268 39.54605082 1.54561344 42.2719328 1 45 C14.86 45 28.72 45 43 45 C42.34 47.97 41.68 50.94 41 54 C23.51 54 6.02 54 -12 54 C-8 36 -4 18 0 0 Z " fill="#070707" transform="translate(318,193)"/>
<path d="M0 0 C3.95683792 -0.9318908 7.08254774 -1.19532518 11 0 C14.97313173 3.88748008 17.47448633 9.1111044 20 14 C23.87733625 12.3867348 26.51726426 9.85050638 29.5625 7 C37.35240918 -0.2719912 37.35240918 -0.2719912 44.1875 -0.125 C45.81751953 -0.09792969 45.81751953 -0.09792969 47.48046875 -0.0703125 C48.72763672 -0.03550781 48.72763672 -0.03550781 50 0 C46.20295707 5.10636808 41.70778174 8.82294164 36.71875 12.75390625 C33.96973387 15.02500435 31.48154217 17.44203352 29 20 C29.39380859 20.57032959 29.78761719 21.14065918 30.19335938 21.72827148 C31.96464096 24.29636776 33.73236355 26.86689356 35.5 29.4375 C36.12003906 30.33533203 36.74007812 31.23316406 37.37890625 32.15820312 C38.25869141 33.43920898 38.25869141 33.43920898 39.15625 34.74609375 C39.70087891 35.53685303 40.24550781 36.3276123 40.80664062 37.14233398 C42 39 42 39 42 40 C38.0096557 41.0241378 34.95333291 41.26486812 31 40 C26.7048178 35.79136356 23.86830639 30.22641511 21 25 C16.33403655 26.44627649 13.31845264 29.17676765 9.875 32.5 C1.70016642 40.27312186 1.70016642 40.27312186 -5.1875 40.125 C-6.27417969 40.10695312 -7.36085938 40.08890625 -8.48046875 40.0703125 C-9.31191406 40.04710937 -10.14335937 40.02390625 -11 40 C-6.51881989 33.97358537 -0.84881707 29.65169077 5 25 C6.23284339 23.98361003 7.46291199 22.96382138 8.6875 21.9375 C9.450625 21.298125 10.21375 20.65875 11 20 C9.42106909 15.45406704 7.01618819 11.72828972 4.375 7.75 C0 1.12039877 0 1.12039877 0 0 Z " fill="#070707" transform="translate(439,207)"/>
<path d="M0 0 C2 1 2 1 2.77783203 2.9777832 C3.13917236 4.25141724 3.13917236 4.25141724 3.5078125 5.55078125 C3.77207031 6.47697266 4.03632813 7.40316406 4.30859375 8.35742188 C4.57800781 9.33259766 4.84742188 10.30777344 5.125 11.3125 C5.54072266 12.75786133 5.54072266 12.75786133 5.96484375 14.23242188 C7.12560424 18.35798196 8 21.67843422 8 26 C-0.91 26 -9.82 26 -19 26 C-12.25 15.875 -12.25 15.875 -9.5703125 12.40234375 C-9.003125 11.66435547 -8.4359375 10.92636719 -7.8515625 10.16601562 C-7.28179687 9.43060547 -6.71203125 8.69519531 -6.125 7.9375 C-5.53203125 7.16728516 -4.9390625 6.39707031 -4.328125 5.60351562 C-2.88799185 3.73366533 -1.44527523 1.86587667 0 0 Z " fill="#F8F8F8" transform="translate(130,199)"/>
<path d="M0 0 C0.66 0 1.32 0 2 0 C3.16875139 4.14524856 4.3346527 8.29129329 5.5 12.4375 C5.83386719 13.62150391 6.16773438 14.80550781 6.51171875 16.02539062 C6.82753906 17.15009766 7.14335937 18.27480469 7.46875 19.43359375 C7.90864258 20.99678345 7.90864258 20.99678345 8.35742188 22.59155273 C9 25 9 25 9 26 C0.09 26 -8.82 26 -18 26 C-16.41269955 22.82539911 -14.90658246 20.36877334 -12.8125 17.55859375 C-12.19632812 16.72779297 -11.58015625 15.89699219 -10.9453125 15.04101562 C-10.30335938 14.18185547 -9.66140625 13.32269531 -9 12.4375 C-7.72861318 10.72827615 -6.45775706 9.01865738 -5.1875 7.30859375 C-4.34251953 6.17635376 -4.34251953 6.17635376 -3.48046875 5.02124023 C-2.27708611 3.37829748 -1.12965491 1.69448236 0 0 Z " fill="#F9F9F9" transform="translate(271,199)"/>
</svg>
